REM DIRINDEX 1\2,1\3,1\4
REM DIRNAME cjc112,folder01,folder02,folder03
TITLE ""
FILE "Track49.mp3" MP3
  TRACK 01 AUDIO
    TITLE "2:cjc112_223"
    INDEX 01 00:00:00
  TRACK 02 AUDIO
    TITLE "0:"
    INDEX 01 00:01:34
  TRACK 03 AUDIO
    TITLE "3:cjc112_224"
    INDEX 01 00:02:00
  TRACK 04 AUDIO
    TITLE "0:"
    INDEX 01 00:05:20
  TRACK 05 AUDIO
    TITLE "4:cjc112_225"
    INDEX 01 00:08:64
  TRACK 06 AUDIO
    TITLE "0:"
    INDEX 01 00:12:14
